HIERARCHY
ROOT Hips
{
	OFFSET 0.000000 0.000000 0.000000
	CHANNELS 6 Xposition Yposition Zposition Xrotation Yrotation Zrotation
	JOINT LeftUpLeg_virtual
	{
		OFFSET 0.000000 0.000000 0.000000
		CHANNELS 3 Xrotation Yrotation Zrotation
		JOINT LeftUpLeg
		{
			OFFSET 13.026900 -6.336304 -1.092800
			CHANNELS 3 Xrotation Yrotation Zrotation
			JOINT LeftLeg
			{
				OFFSET 0.524474 -46.096886 9.782700
				CHANNELS 3 Xrotation Yrotation Zrotation
				JOINT LeftFoot
				{
					OFFSET -0.524474 -53.427422 -12.948200
					CHANNELS 3 Xrotation Yrotation Zrotation
					JOINT LeftToeBase
					{
						OFFSET 0.192200 -14.009700 16.364100
						CHANNELS 3 Xrotation Yrotation Zrotation
						JOINT LeftToe_End
						{
							OFFSET -1.784700 -0.561700 9.474800
							CHANNELS 3 Xrotation Yrotation Zrotation
							End Site
							{
								OFFSET 0 0 0
							}
						}
					}
				}
			}
		}
	}
	JOINT RightUpLeg_virtual
	{
		OFFSET 0.000000 0.000000 0.000000
		CHANNELS 3 Xrotation Yrotation Zrotation
		JOINT RightUpLeg
		{
			OFFSET -12.883000 -6.336304 -1.092800
			CHANNELS 3 Xrotation Yrotation Zrotation
			JOINT RightLeg
			{
				OFFSET -0.524587 -46.096825 9.782800
				CHANNELS 3 Xrotation Yrotation Zrotation
				JOINT RightFoot
				{
					OFFSET 0.524587 -53.427383 -12.948300
					CHANNELS 3 Xrotation Yrotation Zrotation
					JOINT RightToeBase
					{
						OFFSET -0.192200 -14.009700 16.364100
						CHANNELS 3 Xrotation Yrotation Zrotation
						JOINT RightToe_End
						{
							OFFSET 1.784700 -0.561700 9.474800
							CHANNELS 3 Xrotation Yrotation Zrotation
							End Site
							{
								OFFSET 0 0 0
							}
						}
					}
				}
			}
		}
	}
	JOINT Spine_virtual
	{
		OFFSET 0.000000 0.000000 0.000000
		CHANNELS 3 Xrotation Yrotation Zrotation
		JOINT Spine
		{
			OFFSET 0.072000 7.257294 -0.789700
			CHANNELS 3 Xrotation Yrotation Zrotation
			JOINT Spine1
			{
				OFFSET 0.000000 12.508769 -0.658067
				CHANNELS 3 Xrotation Yrotation Zrotation
				JOINT Spine1_split
				{
					OFFSET 0.000000 12.508769 -0.658067
					CHANNELS 3 Xrotation Yrotation Zrotation
					JOINT Spine2
					{
						OFFSET 0.000000 12.508769 -0.658067
						CHANNELS 3 Xrotation Yrotation Zrotation
						JOINT Neck_virtual
						{
							OFFSET 0.000000 0.000000 0.000000
							CHANNELS 3 Xrotation Yrotation Zrotation
							JOINT Neck
							{
								OFFSET 0.000000 14.033295 7.520400
								CHANNELS 3 Xrotation Yrotation Zrotation
								JOINT Head
								{
									OFFSET 0.000000 8.198502 5.703100
									CHANNELS 3 Xrotation Yrotation Zrotation
									JOINT HeadTop_End
									{
										OFFSET 0.000000 17.760803 13.332701
										CHANNELS 3 Xrotation Yrotation Zrotation
										End Site
										{
											OFFSET 0 0 0
										}
									}
								}
							}
						}
						JOINT LeftShoulder_virtual
						{
							OFFSET 0.000000 0.000000 0.000000
							CHANNELS 3 Xrotation Yrotation Zrotation
							JOINT LeftShoulder
							{
								OFFSET 6.292450 5.785301 -0.669000
								CHANNELS 3 Xrotation Yrotation Zrotation
								JOINT LeftShoulder_split
								{
									OFFSET 6.292450 5.785301 -0.669000
									CHANNELS 3 Xrotation Yrotation Zrotation
									JOINT LeftArm
									{
										OFFSET 13.907140 -6.093903 1.965100
										CHANNELS 3 Xrotation Yrotation Zrotation
										JOINT LeftForeArm
										{
											OFFSET 34.140198 0.000000 0.000000
											CHANNELS 3 Xrotation Yrotation Zrotation
											JOINT LeftHand
											{
												OFFSET 40.960209 0.000000 0.000000
												CHANNELS 3 Xrotation Yrotation Zrotation
												End Site
												{
													OFFSET 0 0 0
												}
											}
										}
									}
								}
							}
						}
						JOINT RightShoulder_virtual
						{
							OFFSET 0.000000 0.000000 0.000000
							CHANNELS 3 Xrotation Yrotation Zrotation
							JOINT RightShoulder
							{
								OFFSET -6.292450 5.785301 -0.669000
								CHANNELS 3 Xrotation Yrotation Zrotation
								JOINT RightShoulder_split
								{
									OFFSET -6.292450 5.785301 -0.669000
									CHANNELS 3 Xrotation Yrotation Zrotation
									JOINT RightArm
									{
										OFFSET -13.907140 -6.093903 1.965100
										CHANNELS 3 Xrotation Yrotation Zrotation
										JOINT RightForeArm
										{
											OFFSET -34.140198 0.000000 0.000000
											CHANNELS 3 Xrotation Yrotation Zrotation
											JOINT RightHand
											{
												OFFSET -40.960209 0.000000 0.000000
												CHANNELS 3 Xrotation Yrotation Zrotation
												End Site
												{
													OFFSET 0 0 0
												}
											}
										}
									}
								}
							}
						}
					}
				}
			}
		}
	}
}
MOTION
Frames: 8
Frame Time: 0.03333333
20.585640 70.163834 -59.394821 0.000000 0.000000 0.000000 39.595143 -18.437527 12.985253 -57.348666 -12.813394 0.510227 79.663351 -2.073989 -1.224903 2.289230 2.853334 -15.321381 -35.983540 0.142680 -12.267508 0.000000 0.000000 0.000000 41.311703 -22.338595 13.452392 -76.362143 -12.770136 -16.872003 96.215386 -8.710358 3.821875 -30.217785 -23.707727 10.384584 -17.053613 7.275821 -8.138461 0.000000 0.000000 0.000000 43.963612 -16.445636 13.708080 35.986491 8.463971 4.865265 2.170250 1.234988 0.847872 0.093374 -0.122503 0.176468 0.000000 0.000000 0.000000 4.417602 2.785436 1.814865 -14.314105 2.825054 7.654240 -24.733269 -30.647011 -25.580945 0.000000 0.000000 0.000000 4.395847 1.436839 0.362573 3.045558 -22.464134 -0.265980 3.467946 2.170936 -6.717996 -25.428583 -19.896812 -48.654846 -9.491607 -32.626273 0.478643 0.000000 0.000000 0.000000 6.042612 2.102568 1.951685 2.026673 22.444480 2.523570 0.333841 -0.165799 -0.671036 -60.163387 38.732316 38.443071 -33.829579 15.158241 14.492968 0.000000 0.000000 0.000000 
20.934917 70.605484 -58.636353 0.000000 0.000000 0.000000 38.792363 -19.925380 13.462948 -61.009046 -13.944333 -0.018252 82.971321 -1.665386 -1.129616 5.017956 3.626834 -16.135675 -34.657582 0.370534 -12.616994 0.000000 0.000000 0.000000 40.507369 -24.034618 13.994577 -75.078191 -13.335091 -16.189678 95.386139 -8.548544 3.149669 -30.174857 -24.398225 11.108859 -17.014519 7.258717 -7.606070 0.000000 0.000000 0.000000 43.273090 -17.901048 14.034942 36.015113 8.536423 4.425011 2.579844 1.177136 0.554311 0.107001 -0.190615 0.197275 0.000000 0.000000 0.000000 4.644845 2.732283 1.515868 -14.212057 3.009276 7.551808 -24.865973 -30.087755 -24.793180 0.000000 0.000000 0.000000 4.655341 1.358793 0.001552 3.086381 -23.127847 -0.512462 2.550998 2.116440 -6.902587 -23.102657 -17.576616 -47.591764 -11.457000 -35.579381 -0.853658 0.000000 0.000000 0.000000 6.215933 2.027551 1.679602 1.931999 21.757417 2.373366 -0.178697 -0.272789 -0.378941 -57.748983 38.739115 38.759104 -34.537336 16.579101 16.047623 0.000000 0.000000 0.000000 
21.239586 71.105522 -57.561996 0.000000 0.000000 0.000000 38.085483 -21.135909 13.982502 -64.610953 -14.838723 -0.439519 85.773761 -1.447068 -0.775532 7.524905 4.013713 -17.105681 -33.732768 0.517963 -12.801249 0.000000 0.000000 0.000000 39.926246 -25.631982 14.749105 -73.825042 -13.921480 -15.601352 94.448969 -8.279951 2.329888 -30.416724 -25.156642 11.834197 -16.535290 7.272652 -7.164844 0.000000 0.000000 0.000000 42.737617 -19.092981 14.443912 35.933086 8.598832 3.959264 3.020250 1.178535 0.266245 0.103877 -0.277483 0.213958 0.000000 0.000000 0.000000 5.010364 2.749619 1.202622 -14.117189 3.319891 7.442090 -25.402459 -29.122701 -24.007715 0.000000 0.000000 0.000000 4.958342 1.338899 -0.341672 3.059479 -23.833672 -0.860381 1.687462 1.922077 -6.798879 -21.249306 -15.411256 -46.143085 -13.096933 -38.145148 -2.084161 0.000000 0.000000 0.000000 6.471496 2.005572 1.402299 1.950781 21.003629 1.918558 -0.737582 -0.447254 -0.195582 -55.048873 39.134122 38.475320 -35.331155 18.413085 17.961780 0.000000 0.000000 0.000000 
21.509106 71.701706 -56.195854 0.000000 0.000000 0.000000 37.509903 -22.049784 14.508471 -68.246021 -15.446840 -0.522562 88.135873 -1.442689 -0.231473 9.689978 4.128901 -18.115817 -32.834143 0.584681 -12.878395 0.000000 0.000000 0.000000 39.626466 -27.021601 15.633193 -72.555720 -14.485556 -15.125392 93.362115 -7.823179 1.347866 -30.689204 -25.965398 12.836947 -15.794077 7.309189 -6.788312 0.000000 0.000000 0.000000 42.284123 -19.972551 14.909628 35.745341 8.621691 3.514344 3.475118 1.238865 -0.008468 0.105814 -0.377693 0.211196 0.000000 0.000000 0.000000 5.482643 2.830249 0.890482 -13.971866 3.713987 7.338006 -26.415470 -27.832754 -23.296402 0.000000 0.000000 0.000000 5.274598 1.377041 -0.656118 2.984678 -24.560993 -1.238155 0.919558 1.719892 -6.555013 -19.854248 -13.505897 -44.292284 -14.298576 -40.346064 -3.095546 0.000000 0.000000 0.000000 6.786479 2.031461 1.129301 2.078107 20.166448 1.184918 -1.417359 -0.689260 0.031255 -52.362040 39.907911 37.713361 -36.103284 20.266874 20.031872 0.000000 0.000000 0.000000 
21.771137 72.521530 -54.495041 0.000000 0.000000 0.000000 37.173185 -22.760062 15.057224 -71.927575 -15.921577 -0.182703 90.026060 -1.607996 0.375039 11.599025 4.108337 -19.135118 -31.714368 0.609414 -12.894954 0.000000 0.000000 0.000000 39.513747 -28.059831 16.532311 -71.028387 -14.978251 -14.683293 92.035440 -7.199409 0.229095 -31.012829 -26.905049 14.114881 -14.773132 7.317574 -6.430678 0.000000 0.000000 0.000000 41.876785 -20.604804 15.438090 35.516577 8.566711 3.111925 3.915954 1.330186 -0.261537 0.112099 -0.458923 0.201242 0.000000 0.000000 0.000000 6.020176 2.936575 0.580638 -13.751811 4.158225 7.259758 -27.877185 -26.371533 -22.666246 0.000000 0.000000 0.000000 5.591609 1.445875 -0.924651 2.901459 -25.284368 -1.546051 0.388066 1.596874 -6.182994 -18.862462 -11.933414 -42.093776 -15.004824 -42.386081 -3.849414 0.000000 0.000000 0.000000 7.116272 2.070442 0.872151 2.266510 19.177250 0.187013 -2.002657 -0.895007 0.316384 -50.177893 40.978280 36.874887 -36.758425 21.948789 22.077699 0.000000 0.000000 0.000000 
22.023697 73.594582 -52.484680 0.000000 0.000000 0.000000 37.004626 -23.315645 15.571061 -75.622441 -16.395681 0.558347 91.491825 -1.810240 0.988407 13.357216 4.242553 -20.141787 -30.254009 0.601811 -12.832122 0.000000 0.000000 0.000000 39.414385 -28.562883 17.216733 -68.950391 -15.398274 -14.171334 90.383354 -6.513595 -0.946062 -31.730177 -28.082224 15.297529 -13.428189 7.261290 -6.030234 0.000000 0.000000 0.000000 41.396694 -21.047380 15.971600 35.323659 8.371811 2.798048 4.317440 1.409722 -0.484801 0.133766 -0.505738 0.198479 0.000000 0.000000 0.000000 6.584315 3.020433 0.283116 -13.412503 4.608768 7.224589 -29.623791 -24.961046 -22.071678 0.000000 0.000000 0.000000 5.897975 1.509471 -1.137110 2.828806 -25.956141 -1.727993 0.131172 1.568585 -5.748797 -18.320955 -10.849748 -39.658681 -15.217943 -44.445106 -4.329259 0.000000 0.000000 0.000000 7.426218 2.083907 0.629935 2.466940 18.019118 -1.049446 -2.449058 -0.962709 0.586142 -49.112028 42.089815 36.528835 -37.241596 23.386569 23.971326 0.000000 0.000000 0.000000 
22.188374 74.932365 -50.170700 0.000000 0.000000 0.000000 36.965694 -23.789339 16.070286 -79.000666 -16.825563 1.600093 92.357756 -1.819830 1.525762 14.754262 4.782708 -20.920658 -28.320112 0.514149 -12.668608 0.000000 0.000000 0.000000 39.183265 -28.600789 17.621326 -66.141653 -15.794413 -13.561982 88.360484 -5.907403 -2.039142 -33.042768 -29.517069 15.978608 -11.885853 7.130025 -5.527832 0.000000 0.000000 0.000000 40.819301 -21.401464 16.495231 35.237175 7.980050 2.578852 4.681917 1.443657 -0.693174 0.141880 -0.506113 0.210829 0.000000 0.000000 0.000000 7.122838 3.048221 -0.004139 -12.868753 5.038810 7.225031 -31.353498 -23.892142 -21.404836 0.000000 0.000000 0.000000 6.198840 1.529513 -1.302231 2.777115 -26.506561 -1.752654 -0.028068 1.581245 -5.466988 -18.221584 -10.327267 -37.080817 -14.922145 -46.514128 -4.486862 0.000000 0.000000 0.000000 7.695093 2.038575 0.383702 2.623172 16.691285 -2.517767 -2.691401 -0.796561 0.810479 -49.442134 43.073447 37.079970 -37.491977 24.642969 25.611720 0.000000 0.000000 0.000000 
22.278664 76.523544 -47.569954 0.000000 0.000000 0.000000 36.851910 -24.129339 16.525054 -81.841102 -17.099242 2.856469 92.287979 -1.636410 2.080126 15.714667 5.633825 -21.599187 -26.196490 0.309705 -12.239244 0.000000 0.000000 0.000000 38.691666 -28.258234 17.774565 -62.636653 -16.132664 -12.930982 85.916909 -5.403293 -2.986144 -34.864270 -31.080134 15.988209 -10.224574 6.942642 -4.936947 0.000000 0.000000 0.000000 40.142005 -21.683672 17.010613 35.306723 7.340984 2.436079 5.004111 1.417133 -0.903442 0.127327 -0.478135 0.206987 0.000000 0.000000 0.000000 7.628887 3.010233 -0.295044 -12.104972 5.427174 7.225254 -32.909320 -23.357282 -20.628445 0.000000 0.000000 0.000000 6.502478 1.493549 -1.446513 2.753225 -26.890702 -1.616921 -0.132906 1.562000 -5.250369 -18.648298 -10.486762 -34.406197 -14.061451 -48.260351 -4.215962 0.000000 0.000000 0.000000 7.929281 1.930864 0.122176 2.714608 15.266622 -4.226251 -2.700763 -0.479600 0.692295 -51.186548 43.652142 38.629074 -37.504979 25.815892 26.960693 0.000000 0.000000 0.000000 
